<svg xmlns="http://www.w3.org/2000/svg" viewBox="0 0 980 260.91"><defs><style>.cls-1{fill:#454d60;}</style></defs><title>bg-cv-about</title><g id="Слой_2" data-name="Слой 2"><g id="Слой_2-2" data-name="Слой 2"><rect class="cls-1" y="67.92" width="52" height="124"/><rect class="cls-1" x="340.99" y="67.89" width="2" height="2"/><rect class="cls-1" x="458.81" y="67.89" width="3.99" height="2"/><rect class="cls-1" x="698.44" y="67.89" width="3.99" height="2"/><rect class="cls-1" x="786.3" y="67.89" width="3.99" height="2"/><rect class="cls-1" x="706.42" y="67.89" width="3.99" height="2"/><rect class="cls-1" x="690.45" y="67.89" width="3.99" height="2"/><rect class="cls-1" x="466.8" y="67.89" width="3.99" height="2"/><rect class="cls-1" x="666.49" y="67.89" width="3.99" height="2"/><rect class="cls-1" x="674.47" y="67.89" width="3.99" height="2"/><rect class="cls-1" x="474.79" y="67.89" width="3.99" height="2"/><rect class="cls-1" x="722.4" y="67.89" width="3.99" height="2"/><rect class="cls-1" x="682.46" y="67.89" width="3.99" height="2"/><rect class="cls-1" x="482.77" y="67.89" width="3.99" height="2"/><rect class="cls-1" x="762.34" y="67.89" width="3.99" height="2"/><rect class="cls-1" x="434.85" y="67.89" width="3.99" height="2"/><rect class="cls-1" x="770.32" y="67.89" width="3.99" height="2"/><rect class="cls-1" x="426.86" y="67.89" width="3.99" height="2"/><rect class="cls-1" x="778.31" y="67.89" width="3.99" height="2"/><rect class="cls-1" x="730.39" y="67.89" width="3.99" height="2"/><rect class="cls-1" x="738.37" y="67.89" width="3.99" height="2"/><rect class="cls-1" x="450.82" y="67.89" width="3.99" height="2"/><rect class="cls-1" x="754.35" y="67.89" width="3.99" height="2"/><rect class="cls-1" x="746.36" y="67.89" width="3.99" height="2"/><rect class="cls-1" x="442.83" y="67.89" width="3.99" height="2"/><rect class="cls-1" x="714.41" y="67.89" width="3.99" height="2"/><rect class="cls-1" x="586.61" y="67.89" width="3.99" height="2"/><rect class="cls-1" x="578.62" y="67.89" width="3.99" height="2"/><rect class="cls-1" x="530.7" y="67.89" width="3.99" height="2"/><rect class="cls-1" x="602.59" y="67.89" width="3.99" height="2"/><rect class="cls-1" x="522.71" y="67.89" width="3.99" height="2"/><rect class="cls-1" x="594.6" y="67.89" width="3.99" height="2"/><rect class="cls-1" x="538.69" y="67.89" width="3.99" height="2"/><rect class="cls-1" x="546.67" y="67.89" width="3.99" height="2"/><rect class="cls-1" x="554.66" y="67.89" width="3.99" height="2"/><rect class="cls-1" x="562.65" y="67.89" width="3.99" height="2"/><rect class="cls-1" x="570.64" y="67.89" width="3.99" height="2"/><rect class="cls-1" x="658.5" y="67.89" width="3.99" height="2"/><rect class="cls-1" x="514.72" y="67.89" width="3.99" height="2"/><rect class="cls-1" x="498.75" y="67.89" width="3.99" height="2"/><rect class="cls-1" x="650.51" y="67.89" width="3.99" height="2"/><rect class="cls-1" x="490.76" y="67.89" width="3.99" height="2"/><rect class="cls-1" x="634.54" y="67.89" width="3.99" height="2"/><rect class="cls-1" x="642.52" y="67.89" width="3.99" height="2"/><rect class="cls-1" x="610.57" y="67.89" width="3.99" height="2"/><rect class="cls-1" x="626.55" y="67.89" width="3.99" height="2"/><rect class="cls-1" x="618.56" y="67.89" width="3.99" height="2"/><rect class="cls-1" x="506.74" y="67.89" width="3.99" height="2"/><rect class="cls-1" x="890.14" y="67.89" width="3.99" height="2"/><rect class="cls-1" x="882.15" y="67.89" width="3.99" height="2"/><rect class="cls-1" x="378.93" y="67.89" width="3.99" height="2"/><rect class="cls-1" x="370.95" y="67.89" width="3.99" height="2"/><rect class="cls-1" x="362.96" y="67.89" width="3.99" height="2"/><rect class="cls-1" x="898.12" y="67.89" width="3.99" height="2"/><rect class="cls-1" x="906.11" y="67.89" width="3.99" height="2"/><rect class="cls-1" x="858.19" y="67.89" width="3.99" height="2"/><rect class="cls-1" x="386.92" y="67.89" width="3.99" height="2"/><rect class="cls-1" x="866.17" y="67.89" width="3.99" height="2"/><rect class="cls-1" x="874.16" y="67.89" width="3.99" height="2"/><rect class="cls-1" x="938.06" y="67.89" width="3.99" height="2"/><rect class="cls-1" x="914.1" y="67.89" width="3.99" height="2"/><rect class="cls-1" x="946.05" y="67.89" width="3.99" height="2"/><rect class="cls-1" x="970.01" y="67.89" width="3.99" height="2"/><rect class="cls-1" x="346.98" y="67.89" width="3.99" height="2"/><rect class="cls-1" x="954.04" y="67.89" width="3.99" height="2"/><rect class="cls-1" x="850.2" y="67.89" width="3.99" height="2"/><rect class="cls-1" x="922.09" y="67.89" width="3.99" height="2"/><rect class="cls-1" x="354.97" y="67.89" width="3.99" height="2"/><rect class="cls-1" x="930.07" y="67.89" width="3.99" height="2"/><rect class="cls-1" x="962.02" y="67.89" width="3.99" height="2"/><rect class="cls-1" x="402.9" y="67.89" width="3.99" height="2"/><rect class="cls-1" x="802.27" y="67.89" width="3.99" height="2"/><rect class="cls-1" x="418.87" y="67.89" width="3.99" height="2"/><rect class="cls-1" x="818.25" y="67.89" width="3.99" height="2"/><rect class="cls-1" x="826.24" y="67.89" width="3.99" height="2"/><rect class="cls-1" x="810.26" y="67.89" width="3.99" height="2"/><rect class="cls-1" x="834.22" y="67.89" width="3.99" height="2"/><rect class="cls-1" x="842.21" y="67.89" width="3.99" height="2"/><rect class="cls-1" x="394.91" y="67.89" width="3.99" height="2"/><rect class="cls-1" x="794.29" y="67.89" width="3.99" height="2"/><rect class="cls-1" x="410.88" y="67.89" width="3.99" height="2"/><rect class="cls-1" x="978" y="67.89" width="2" height="2"/><rect class="cls-1" x="340.99" y="189.92" width="2" height="2"/><rect class="cls-1" x="442.83" y="189.92" width="3.99" height="2"/><rect class="cls-1" x="394.91" y="189.92" width="3.99" height="2"/><rect class="cls-1" x="354.97" y="189.92" width="3.99" height="2"/><rect class="cls-1" x="426.86" y="189.92" width="3.99" height="2"/><rect class="cls-1" x="346.98" y="189.92" width="3.99" height="2"/><rect class="cls-1" x="418.87" y="189.92" width="3.99" height="2"/><rect class="cls-1" x="434.85" y="189.92" width="3.99" height="2"/><rect class="cls-1" x="538.69" y="189.92" width="3.99" height="2"/><rect class="cls-1" x="530.7" y="189.92" width="3.99" height="2"/><rect class="cls-1" x="522.71" y="189.92" width="3.99" height="2"/><rect class="cls-1" x="402.9" y="189.92" width="3.99" height="2"/><rect class="cls-1" x="490.76" y="189.92" width="3.99" height="2"/><rect class="cls-1" x="386.92" y="189.92" width="3.99" height="2"/><rect class="cls-1" x="458.81" y="189.92" width="3.99" height="2"/><rect class="cls-1" x="378.93" y="189.92" width="3.99" height="2"/><rect class="cls-1" x="362.96" y="189.92" width="3.99" height="2"/><rect class="cls-1" x="482.77" y="189.92" width="3.99" height="2"/><rect class="cls-1" x="466.8" y="189.92" width="3.99" height="2"/><rect class="cls-1" x="474.79" y="189.92" width="3.99" height="2"/><rect class="cls-1" x="410.88" y="189.92" width="3.99" height="2"/><rect class="cls-1" x="546.67" y="189.92" width="3.99" height="2"/><rect class="cls-1" x="514.72" y="189.92" width="3.99" height="2"/><rect class="cls-1" x="450.82" y="189.92" width="3.99" height="2"/><rect class="cls-1" x="498.75" y="189.92" width="3.99" height="2"/><rect class="cls-1" x="370.95" y="189.92" width="3.99" height="2"/><rect class="cls-1" x="506.74" y="189.92" width="3.99" height="2"/><rect class="cls-1" x="570.64" y="189.92" width="3.99" height="2"/><rect class="cls-1" x="850.2" y="189.92" width="3.99" height="2"/><rect class="cls-1" x="842.21" y="189.92" width="3.99" height="2"/><rect class="cls-1" x="826.24" y="189.92" width="3.99" height="2"/><rect class="cls-1" x="834.22" y="189.92" width="3.99" height="2"/><rect class="cls-1" x="858.19" y="189.92" width="3.99" height="2"/><rect class="cls-1" x="770.32" y="189.92" width="3.99" height="2"/><rect class="cls-1" x="786.3" y="189.92" width="3.99" height="2"/><rect class="cls-1" x="794.29" y="189.92" width="3.99" height="2"/><rect class="cls-1" x="874.16" y="189.92" width="3.99" height="2"/><rect class="cls-1" x="778.31" y="189.92" width="3.99" height="2"/><rect class="cls-1" x="802.27" y="189.92" width="3.99" height="2"/><rect class="cls-1" x="818.25" y="189.92" width="3.99" height="2"/><rect class="cls-1" x="810.26" y="189.92" width="3.99" height="2"/><rect class="cls-1" x="866.17" y="189.92" width="3.99" height="2"/><rect class="cls-1" x="954.04" y="189.92" width="3.99" height="2"/><rect class="cls-1" x="938.06" y="189.92" width="3.99" height="2"/><rect class="cls-1" x="962.02" y="189.92" width="3.99" height="2"/><rect class="cls-1" x="882.15" y="189.92" width="3.99" height="2"/><rect class="cls-1" x="970.01" y="189.92" width="3.99" height="2"/><rect class="cls-1" x="554.66" y="189.92" width="3.99" height="2"/><rect class="cls-1" x="946.05" y="189.92" width="3.99" height="2"/><rect class="cls-1" x="890.14" y="189.92" width="3.99" height="2"/><rect class="cls-1" x="898.12" y="189.92" width="3.99" height="2"/><rect class="cls-1" x="930.07" y="189.92" width="3.99" height="2"/><rect class="cls-1" x="922.09" y="189.92" width="3.99" height="2"/><rect class="cls-1" x="906.11" y="189.92" width="3.99" height="2"/><rect class="cls-1" x="914.1" y="189.92" width="3.99" height="2"/><rect class="cls-1" x="626.55" y="189.92" width="3.99" height="2"/><rect class="cls-1" x="634.54" y="189.92" width="3.99" height="2"/><rect class="cls-1" x="618.56" y="189.92" width="3.99" height="2"/><rect class="cls-1" x="610.57" y="189.92" width="3.99" height="2"/><rect class="cls-1" x="642.52" y="189.92" width="3.99" height="2"/><rect class="cls-1" x="658.5" y="189.92" width="3.99" height="2"/><rect class="cls-1" x="650.51" y="189.92" width="3.99" height="2"/><rect class="cls-1" x="602.59" y="189.92" width="3.99" height="2"/><rect class="cls-1" x="578.62" y="189.92" width="3.99" height="2"/><rect class="cls-1" x="562.65" y="189.92" width="3.99" height="2"/><rect class="cls-1" x="762.34" y="189.92" width="3.99" height="2"/><rect class="cls-1" x="586.61" y="189.92" width="3.99" height="2"/><rect class="cls-1" x="594.6" y="189.92" width="3.99" height="2"/><rect class="cls-1" x="682.46" y="189.92" width="3.99" height="2"/><rect class="cls-1" x="714.41" y="189.92" width="3.99" height="2"/><rect class="cls-1" x="722.4" y="189.92" width="3.99" height="2"/><rect class="cls-1" x="738.37" y="189.92" width="3.99" height="2"/><rect class="cls-1" x="730.39" y="189.92" width="3.99" height="2"/><rect class="cls-1" x="746.36" y="189.92" width="3.99" height="2"/><rect class="cls-1" x="754.35" y="189.92" width="3.99" height="2"/><rect class="cls-1" x="698.44" y="189.92" width="3.99" height="2"/><rect class="cls-1" x="706.42" y="189.92" width="3.99" height="2"/><rect class="cls-1" x="666.49" y="189.92" width="3.99" height="2"/><rect class="cls-1" x="674.47" y="189.92" width="3.99" height="2"/><rect class="cls-1" x="690.45" y="189.92" width="3.99" height="2"/><rect class="cls-1" x="978" y="189.92" width="2" height="2"/><path class="cls-1" d="M80.7,197.52c.9,1.49,1.84,3,2.8,4.42l2.16-1.43c-.94-1.42-1.86-2.88-2.74-4.34Z"/><path class="cls-1" d="M92.93,214.51c1.12,1.32,2.29,2.64,3.47,3.92l1.91-1.75c-1.16-1.26-2.3-2.56-3.4-3.85Z"/><path class="cls-1" d="M100,222.22c1.22,1.23,2.49,2.46,3.77,3.64l1.77-1.9c-1.26-1.16-2.5-2.36-3.7-3.57Z"/><path class="cls-1" d="M93.35,45.91l2,1.69c1.11-1.29,2.26-2.58,3.42-3.83L96.84,42C95.65,43.28,94.48,44.59,93.35,45.91Z"/><path class="cls-1" d="M86.84,54.14l2.1,1.53c1-1.38,2-2.76,3.11-4.1L90,50C88.93,51.33,87.87,52.73,86.84,54.14Z"/><path class="cls-1" d="M81,62.86l2.21,1.36c.89-1.45,1.82-2.91,2.77-4.34l-2.16-1.44C82.87,59.9,81.92,61.38,81,62.86Z"/><path class="cls-1" d="M100.48,38.23l1.83,1.84c1.21-1.2,2.46-2.4,3.72-3.55l-1.76-1.91C103,35.79,101.72,37,100.48,38.23Z"/><path class="cls-1" d="M86.47,206.25c1,1.41,2.07,2.82,3.15,4.2l2-1.61c-1-1.34-2.09-2.73-3.08-4.1Z"/><path class="cls-1" d="M75.91,72l2.32,1.17c.77-1.53,1.58-3.06,2.41-4.55L78.37,67.4C77.52,68.92,76.7,70.48,75.91,72Z"/><path class="cls-1" d="M125.2,18.93l1.34,2.22c1.45-.88,3-1.74,4.44-2.56l-1.25-2.28C128.21,17.15,126.68,18,125.2,18.93Z"/><path class="cls-1" d="M134.36,13.88l1.16,2.32c1.53-.76,3.09-1.5,4.63-2.2l-1.07-2.37C137.51,12.34,135.92,13.1,134.36,13.88Z"/><path class="cls-1" d="M133.86,246.78c1.57.79,3.16,1.56,4.73,2.27l1.08-2.36c-1.54-.7-3.1-1.45-4.64-2.23Z"/><path class="cls-1" d="M143.89,9.58l1,2.4c1.58-.64,3.2-1.25,4.8-1.83l-.87-2.44C147.15,8.3,145.5,8.92,143.89,9.58Z"/><path class="cls-1" d="M116,235.84c1.4,1,2.85,2,4.3,3l1.44-2.16c-1.42-1-2.84-1.93-4.22-2.94Z"/><path class="cls-1" d="M124.69,241.67c1.48.9,3,1.8,4.53,2.64l1.27-2.26c-1.5-.84-3-1.71-4.45-2.6Z"/><path class="cls-1" d="M107.72,229.35c1.32,1.13,2.68,2.25,4,3.33l1.61-2c-1.35-1.06-2.68-2.16-4-3.26Z"/><path class="cls-1" d="M108.2,31.15l1.68,2c1.3-1.1,2.64-2.19,4-3.24l-1.6-2.05C110.9,28.91,109.53,30,108.2,31.15Z"/><path class="cls-1" d="M116.46,24.7,118,26.81c1.38-1,2.8-2,4.22-2.91l-1.43-2.17C119.32,22.69,117.87,23.69,116.46,24.7Z"/><path class="cls-1" d="M143.42,251.14c1.61.66,3.26,1.3,4.9,1.89l.89-2.44c-1.61-.58-3.23-1.2-4.81-1.85Z"/><path class="cls-1" d="M72.12,87.38l-2.44-.88c-.6,1.65-1.16,3.33-1.68,5l2.47.78C71,90.64,71.54,89,72.12,87.38Z"/><path class="cls-1" d="M312.16,80.91l2.39-1c-.67-1.58-1.38-3.19-2.13-4.77l-2.35,1.11C310.8,77.79,311.51,79.36,312.16,80.91Z"/><path class="cls-1" d="M310.09,70.44c-.81-1.53-1.65-3.08-2.52-4.59l-2.25,1.3c.85,1.48,1.68,3,2.47,4.5Z"/><path class="cls-1" d="M76,77.85l-2.36-1.08c-.73,1.59-1.43,3.21-2.08,4.83l2.4,1C74.61,81,75.29,79.4,76,77.85Z"/><path class="cls-1" d="M315.78,90.52l2.46-.82c-.54-1.65-1.13-3.31-1.74-4.94l-2.43.91C314.67,87.27,315.24,88.9,315.78,90.52Z"/><path class="cls-1" d="M153.3,254.73c1.66.53,3.35,1,5,1.49l.68-2.51c-1.64-.45-3.29-.94-4.92-1.46Z"/><path class="cls-1" d="M321.81,120.67l2.59-.19c-.13-1.74-.3-3.49-.5-5.22l-2.58.3C321.52,117.25,321.68,119,321.81,120.67Z"/><path class="cls-1" d="M320.62,110.47l2.56-.41c-.27-1.72-.58-3.46-.92-5.16l-2.55.51C320.05,107.08,320.35,108.78,320.62,110.47Z"/><path class="cls-1" d="M318.6,100.39l2.53-.61c-.41-1.69-.86-3.39-1.34-5.07l-2.5.72C317.76,97.07,318.2,98.74,318.6,100.39Z"/><path class="cls-1" d="M75.65,188.35c.77,1.55,1.59,3.1,2.43,4.63l2.27-1.25c-.82-1.5-1.62-3-2.38-4.54Z"/><path class="cls-1" d="M70.33,168.18l-2.48.77c.51,1.66,1.07,3.33,1.65,5l2.45-.87C71.38,171.44,70.83,169.8,70.33,168.18Z"/><path class="cls-1" d="M67.68,158.25l-2.53.56c.38,1.7.8,3.41,1.24,5.1l2.51-.67C68.46,161.59,68.05,159.91,67.68,158.25Z"/><path class="cls-1" d="M73.76,177.84l-2.4,1c.64,1.61,1.33,3.23,2,4.81l2.37-1.06C75.07,181,74.4,179.42,73.76,177.84Z"/><path class="cls-1" d="M69,97.2l-2.51-.68c-.45,1.68-.88,3.39-1.26,5.09l2.53.57C68.17,100.52,68.59,98.84,69,97.2Z"/><path class="cls-1" d="M65.85,148.14l-2.57.36c.24,1.73.52,3.47.83,5.17l2.56-.46C66.36,151.54,66.09,149.83,65.85,148.14Z"/><path class="cls-1" d="M64.85,137.92l-2.6.15c.11,1.74.24,3.5.41,5.22l2.59-.25C65.08,141.35,65,139.63,64.85,137.92Z"/><path class="cls-1" d="M66.75,107.21l-2.55-.47c-.32,1.72-.6,3.46-.85,5.18l2.57.37C66.16,110.6,66.44,108.89,66.75,107.21Z"/><path class="cls-1" d="M65.3,117.39l-2.59-.27c-.17,1.73-.32,3.49-.43,5.23l2.6.16C65,120.8,65.12,119.08,65.3,117.39Z"/><path class="cls-1" d="M64.63,130.45c0-.94,0-1.88,0-2.81l-2.59-.06c0,1,0,1.91,0,2.87,0,.8,0,1.59,0,2.38l2.59-.05C64.64,132,64.63,131.23,64.63,130.45Z"/><path class="cls-1" d="M244.54,247.85l1,2.38c1.6-.68,3.2-1.41,4.76-2.16l-1.12-2.34C247.67,246.46,246.1,247.18,244.54,247.85Z"/><path class="cls-1" d="M279.52,35.38c1.27,1.14,2.54,2.31,3.77,3.5l1.8-1.86c-1.25-1.22-2.54-2.42-3.84-3.57Z"/><path class="cls-1" d="M286.91,42.53c1.18,1.24,2.35,2.51,3.47,3.79l1.95-1.72c-1.15-1.3-2.34-2.6-3.54-3.86Z"/><path class="cls-1" d="M286.47,218.84l1.87,1.8c1.2-1.25,2.4-2.55,3.56-3.85L290,215.06C288.83,216.34,287.65,217.61,286.47,218.84Z"/><path class="cls-1" d="M293.3,211.16l2,1.64c1.1-1.34,2.19-2.73,3.24-4.12l-2.07-1.56C295.45,208.48,294.38,209.84,293.3,211.16Z"/><path class="cls-1" d="M293.7,50.24c1.07,1.32,2.13,2.68,3.16,4l2.08-1.55c-1.05-1.4-2.13-2.79-3.23-4.14Z"/><path class="cls-1" d="M271.1,232.44l1.56,2.07c1.39-1,2.77-2.13,4.12-3.23l-1.64-2C273.82,230.35,272.46,231.42,271.1,232.44Z"/><path class="cls-1" d="M263.16,23c1.43.92,2.87,1.88,4.27,2.86l1.49-2.13c-1.43-1-2.9-2-4.36-2.92Z"/><path class="cls-1" d="M279.05,226l1.72,1.94c1.31-1.15,2.61-2.35,3.86-3.55l-1.8-1.87C281.6,223.64,280.33,224.81,279.05,226Z"/><path class="cls-1" d="M271.59,28.84c1.36,1,2.71,2.1,4,3.19l1.65-2c-1.34-1.11-2.73-2.21-4.11-3.26Z"/><path class="cls-1" d="M262.66,238.28l1.39,2.19c1.46-.93,2.93-1.9,4.36-2.89l-1.47-2.14C265.53,236.42,264.09,237.37,262.66,238.28Z"/><path class="cls-1" d="M319.62,156l2.54.51c.35-1.7.67-3.44.95-5.15l-2.57-.42C320.27,152.6,320,154.3,319.62,156Z"/><path class="cls-1" d="M321.26,145.83l2.58.31c.21-1.72.38-3.48.52-5.21l-2.59-.21C321.64,142.42,321.47,144.14,321.26,145.83Z"/><path class="cls-1" d="M317.16,166l2.49.72c.49-1.68,1-3.38,1.36-5.06l-2.52-.62C318.08,162.63,317.63,164.3,317.16,166Z"/><path class="cls-1" d="M322.1,125.8c.06,1.55.08,3.11.08,4.65,0,1.72,0,3.45-.1,5.14l2.6.1c.07-1.73.1-3.49.1-5.24,0-1.57,0-3.16-.09-4.74Z"/><path class="cls-1" d="M305,194.28l2.24,1.3c.88-1.51,1.74-3.05,2.55-4.59l-2.29-1.21C306.72,191.28,305.88,192.8,305,194.28Z"/><path class="cls-1" d="M313.88,175.72l2.43.92c.62-1.63,1.22-3.3,1.77-4.95l-2.46-.82C315.08,172.49,314.49,174.12,313.88,175.72Z"/><path class="cls-1" d="M299.5,203l2.13,1.49c1-1.43,2-2.9,2.91-4.37l-2.19-1.4C301.43,200.12,300.47,201.56,299.5,203Z"/><path class="cls-1" d="M153.76,6l.77,2.47c1.63-.51,3.29-1,4.94-1.44l-.68-2.5C157.11,5,155.41,5.52,153.76,6Z"/><path class="cls-1" d="M309.83,185.18l2.34,1.12c.76-1.59,1.49-3.2,2.17-4.79l-2.39-1C311.28,182.05,310.57,183.63,309.83,185.18Z"/><path class="cls-1" d="M299.85,58.46c1,1.41,1.91,2.85,2.82,4.29l2.2-1.38C303.94,59.9,303,58.42,302,57Z"/><path class="cls-1" d="M184.13,260.6c1.72.12,3.49.21,5.23.26l.08-2.6c-1.71-.05-3.44-.13-5.13-.25Z"/><path class="cls-1" d="M194.58,258.32l0,2.59c1.75,0,3.51-.06,5.24-.14l-.12-2.6C198,258.25,196.29,258.3,194.58,258.32Z"/><path class="cls-1" d="M184.6.28l.17,2.59c1.7-.11,3.43-.19,5.14-.24L189.84,0C188.09.08,186.33.17,184.6.28Z"/><path class="cls-1" d="M195.05,2.6c1.72,0,3.45.07,5.14.16l.13-2.59C198.6.08,196.83,0,195.08,0Z"/><path class="cls-1" d="M204.85,257.83l.22,2.58c1.73-.15,3.48-.34,5.21-.56l-.32-2.57C208.26,257.49,206.54,257.68,204.85,257.83Z"/><path class="cls-1" d="M163.88,3.3l.57,2.53c1.67-.38,3.37-.73,5-1L169,2.24C167.31,2.55,165.58,2.91,163.88,3.3Z"/><path class="cls-1" d="M163.41,257.5c1.69.4,3.42.76,5.13,1.08L169,256c-1.68-.32-3.37-.67-5-1.06Z"/><path class="cls-1" d="M174.18,1.38,174.55,4c1.69-.25,3.41-.47,5.1-.64L179.38.72C177.65.91,175.9,1.13,174.18,1.38Z"/><path class="cls-1" d="M173.71,259.46c1.71.26,3.46.48,5.2.67l.28-2.58c-1.71-.18-3.42-.4-5.1-.66Z"/><path class="cls-1" d="M245,13.26c1.56.68,3.14,1.41,4.68,2.15l1.13-2.34c-1.57-.76-3.18-1.49-4.78-2.19Z"/><path class="cls-1" d="M235.4,9.54c1.61.55,3.24,1.15,4.84,1.76l.94-2.42c-1.63-.63-3.29-1.23-4.94-1.8Z"/><path class="cls-1" d="M254.28,17.74c1.5.81,3,1.65,4.49,2.52L260.08,18c-1.5-.88-3-1.75-4.58-2.57Z"/><path class="cls-1" d="M235,251.52l.83,2.46c1.64-.56,3.3-1.15,4.93-1.78l-.93-2.42C238.2,250.39,236.57,251,235,251.52Z"/><path class="cls-1" d="M253.79,243.43l1.21,2.29c1.53-.81,3.07-1.66,4.57-2.53l-1.3-2.25C256.8,241.8,255.29,242.63,253.79,243.43Z"/><path class="cls-1" d="M225.55,6.6c1.66.42,3.32.88,5,1.37l.74-2.49c-1.67-.49-3.37-1-5.06-1.39Z"/><path class="cls-1" d="M205.31,3.13c1.71.15,3.43.34,5.11.56l.34-2.57C209,.89,207.29.7,205.55.54Z"/><path class="cls-1" d="M215.5,4.46c1.69.29,3.39.62,5.05,1l.54-2.54c-1.69-.36-3.42-.69-5.15-1Z"/><path class="cls-1" d="M215,256.53l.43,2.56c1.72-.29,3.45-.62,5.15-1l-.53-2.54C218.42,255.92,216.72,256.24,215,256.53Z"/><path class="cls-1" d="M225.1,254.42l.63,2.52c1.68-.42,3.38-.88,5.06-1.38l-.73-2.49C228.41,253.55,226.74,254,225.1,254.42Z"/></g></g></svg>