<svg xmlns="http://www.w3.org/2000/svg" viewBox="0 0 84.77 64.22"><defs><style>.cls-1{fill:#f5987a;}</style></defs><title>hello</title><g id="Слой_2" data-name="Слой 2"><g id="Слой_2-2" data-name="Слой 2"><path class="cls-1" d="M79.5,0H5.28A5.29,5.29,0,0,0,0,5.27V58.94a5.29,5.29,0,0,0,5.28,5.28H79.5a5.28,5.28,0,0,0,5.27-5.28V5.27A5.28,5.28,0,0,0,79.5,0Zm2.72,58.94a2.73,2.73,0,0,1-2.72,2.73H5.28a2.73,2.73,0,0,1-2.73-2.73V13.44H82.22Zm0-48H2.55V5.27A2.72,2.72,0,0,1,5.28,2.55H79.5a2.72,2.72,0,0,1,2.72,2.72Z"/><path class="cls-1" d="M76.68,5.83h-34a1.28,1.28,0,1,0,0,2.55h34a1.28,1.28,0,1,0,0-2.55Z"/><path class="cls-1" d="M10.52,5.57a1.54,1.54,0,1,0,1.53,1.54A1.54,1.54,0,0,0,10.52,5.57Z"/><path class="cls-1" d="M17.33,5.57a1.54,1.54,0,1,0,1.54,1.54A1.54,1.54,0,0,0,17.33,5.57Z"/><path class="cls-1" d="M24.29,5.57a1.54,1.54,0,1,0,1.54,1.54A1.54,1.54,0,0,0,24.29,5.57Z"/><polygon class="cls-1" points="24.12 30.14 28.16 30.14 28.16 34.67 30.49 34.67 30.49 23.98 28.16 23.98 28.16 27.98 24.12 27.98 24.12 23.98 21.8 23.98 21.8 34.67 24.12 34.67 24.12 30.14"/><polygon class="cls-1" points="39.81 32.52 33.92 32.52 33.92 30.23 39.27 30.23 39.27 28.1 33.92 28.1 33.92 26.17 39.71 26.17 39.71 23.98 31.64 23.98 31.64 34.67 39.81 34.67 39.81 32.52"/><polygon class="cls-1" points="47.76 32.52 42.84 32.52 42.84 23.98 40.53 23.98 40.53 34.67 47.76 34.67 47.76 32.52"/><polygon class="cls-1" points="55.27 32.52 50.35 32.52 50.35 23.98 48.04 23.98 48.04 34.67 55.27 34.67 55.27 32.52"/><path class="cls-1" d="M60.22,35a4.9,4.9,0,0,0,4.09-1.89,6.32,6.32,0,0,0,1.2-3.91,6,6,0,0,0-1.06-3.6,5,5,0,0,0-4.2-1.85,4.76,4.76,0,0,0-4.13,2,6.21,6.21,0,0,0-1.06,3.65,6.07,6.07,0,0,0,1.27,3.94A4.92,4.92,0,0,0,60.22,35Zm-2-8.21a2.72,2.72,0,0,1,2.1-.86,2.6,2.6,0,0,1,2.07.86,3.62,3.62,0,0,1,.77,2.42,4.92,4.92,0,0,1-.69,2.6,2.3,2.3,0,0,1-2.1,1,2.56,2.56,0,0,1-2.25-.91,4,4,0,0,1-.71-2.42A3.91,3.91,0,0,1,58.23,26.75Z"/><polygon class="cls-1" points="22.78 49.67 24.64 42.99 26.51 49.67 28.65 49.67 31.46 38.98 28.98 38.98 27.5 45.34 25.73 38.98 23.55 38.98 21.78 45.34 20.31 38.98 17.83 38.98 20.64 49.67 22.78 49.67"/><path class="cls-1" d="M32.08,40.72A6.28,6.28,0,0,0,31,44.37a6.07,6.07,0,0,0,1.27,3.94A5,5,0,0,0,36.18,50a4.89,4.89,0,0,0,4.09-1.89,6.26,6.26,0,0,0,1.2-3.91,5.91,5.91,0,0,0-1.06-3.6,4.93,4.93,0,0,0-4.2-1.85A4.76,4.76,0,0,0,32.08,40.72Zm6.28,1a3.62,3.62,0,0,1,.77,2.42,4.83,4.83,0,0,1-.69,2.6,2.28,2.28,0,0,1-2.09,1,2.55,2.55,0,0,1-2.25-.91,4,4,0,0,1-.71-2.42,3.91,3.91,0,0,1,.81-2.7,2.69,2.69,0,0,1,2.09-.86A2.57,2.57,0,0,1,38.36,41.75Z"/><path class="cls-1" d="M50.81,48.24a3.33,3.33,0,0,1-.07-.72l-.05-1.29a2.61,2.61,0,0,0-.43-1.54,2.42,2.42,0,0,0-.32-.32,2.76,2.76,0,0,0,.94-2.28,2.77,2.77,0,0,0-1.66-2.74,4.86,4.86,0,0,0-2-.37h-5V49.67h2.31V45.51H47a2.33,2.33,0,0,1,1,.14c.17.08.39.26.43.84l.08,1.61a5.7,5.7,0,0,0,.08.85,1.4,1.4,0,0,0,.14.45l.13.27h2.43V48.61l-.32-.12S50.85,48.42,50.81,48.24Zm-2.58-5.1a2.19,2.19,0,0,1-1.18.27H44.51V41.1h2.7a2.06,2.06,0,0,1,.87.15c.2.1.47.31.47,1A1.14,1.14,0,0,1,48.23,43.14Z"/><polygon class="cls-1" points="54.1 38.98 51.79 38.98 51.79 49.67 59.02 49.67 59.02 47.52 54.1 47.52 54.1 38.98"/><path class="cls-1" d="M59.37,39V49.67h4.41a4.06,4.06,0,0,0,4-2.49,7,7,0,0,0,.63-3A5.76,5.76,0,0,0,67.3,40.6h0A4.23,4.23,0,0,0,63.79,39Zm6.05,2.92A4.23,4.23,0,0,1,66,44.4a4.78,4.78,0,0,1-.09.92h0a3.51,3.51,0,0,1-.49,1.31,1.88,1.88,0,0,1-1,.8,3,3,0,0,1-.93.11H61.68V41.1h1.84A2.14,2.14,0,0,1,65.42,41.9Z"/></g></g></svg>