<svg xmlns="http://www.w3.org/2000/svg" viewBox="0 0 931 37.21"><defs><style>.cls-1{fill:#464e62;}</style></defs><title>line-skills</title><g id="Слой_2" data-name="Слой 2"><g id="Слой_1-2" data-name="Слой 1"><rect class="cls-1" y="17.61" width="440.04" height="2"/><rect class="cls-1" x="490.96" y="17.61" width="440.04" height="2"/><path class="cls-1" d="M462.54,35.33a1.52,1.52,0,0,0,.92,1.88h3.19a1.48,1.48,0,0,0,.91-1.88Z"/><path class="cls-1" d="M473.58,22.21c-1.26-.17-2.52-.35-3.77-.54a.65.65,0,0,1-.58-.81c.11-.75.22-1.49.32-2.23a.67.67,0,0,0-1.13-.67c-.57.44-1.16.88-1.74,1.31a.69.69,0,0,1-1.12-.15l-2.09-2.79a.71.71,0,0,1,.17-1.17c.59-.44,1.19-.88,1.77-1.33.39-.3.45-.77.11-1a1.36,1.36,0,0,0-.63-.22c-.69-.12-1.39-.2-2.09-.31a.64.64,0,0,1-.62-.77c.17-1.21.34-2.42.52-3.63.08-.53.37-.72.9-.64l2.11.31a.74.74,0,0,0,.84-.29c.2-.32.06-.59-.14-.86-.4-.52-.79-1-1.18-1.57s-.47-.82.14-1.36c0,0,0,0,0-.14-.67.06-1.35.08-2,.17a11,11,0,0,0-5.93,2.77,11.16,11.16,0,0,0-3.74,7,11.29,11.29,0,0,0,1.83,8A12.59,12.59,0,0,0,459,24.65a3.41,3.41,0,0,1,1.56,2.73c0,.87,0,1.75,0,2.62a1.94,1.94,0,0,0,2.1,2.11h4.76a1.94,1.94,0,0,0,2.08-2.06c0-.74,0-1.48,0-2.22a3.94,3.94,0,0,1,.53-2,4.33,4.33,0,0,1,1.38-1.38,10.86,10.86,0,0,0,2.45-2.21A1.13,1.13,0,0,1,473.58,22.21Zm-7.9,8h-1.25V28.29h1.25ZM464.42,27a4.15,4.15,0,0,0-.6-2.06,3.76,3.76,0,0,0-1.69-1.54,10.9,10.9,0,0,1-3-1.83,8.76,8.76,0,0,1-2.92-7.6A8.64,8.64,0,0,1,460,7.49a2.43,2.43,0,0,1,.29-.19c.22.36.43.69.67,1.06l-.42.3a7.66,7.66,0,0,0,1.56,13.27A5.49,5.49,0,0,1,465,24.45a5.34,5.34,0,0,1,.65,2.5Z"/><path class="cls-1" d="M479.38,9a1.94,1.94,0,0,1,.83-1.47l1.42-1.06-1.45-1.93-.11-.09c-.51.38-1,.76-1.5,1.11a1.83,1.83,0,0,1-2.12.08,1.85,1.85,0,0,1-.89-2c.08-.58.16-1.16.25-1.78l-2.25-.32a1.85,1.85,0,0,0-.27,0c-.09.57-.17,1.13-.25,1.69A1.92,1.92,0,0,1,471,5a1.89,1.89,0,0,1-1.46-.84l-1.07-1.41-2,1.53c.4.55.79,1,1.15,1.56a1.82,1.82,0,0,1,.05,2.09,1.82,1.82,0,0,1-1.92.88l-1.82-.24c-.11.78-.22,1.53-.33,2.28,0,.07,0,.14,0,.24l1.19.17a5.88,5.88,0,0,1,1,.21,1.89,1.89,0,0,1,.6,3.21c-.5.44-1.05.81-1.6,1.23.52.7,1,1.36,1.53,2,.54-.4,1-.79,1.53-1.14a1.92,1.92,0,0,1,3,1.9c-.08.58-.16,1.16-.24,1.78l2.52.36c.09-.57.17-1.12.24-1.67a1.92,1.92,0,0,1,2.06-1.81,1.88,1.88,0,0,1,1.46.83l1.07,1.42c.7-.54,1.37-1,2-1.54-.4-.53-.78-1-1.14-1.52a1.84,1.84,0,0,1-.08-2.12,1.86,1.86,0,0,1,2-.89l1.76.25c.12-.85.24-1.67.36-2.52l-1.67-.24A1.93,1.93,0,0,1,479.38,9Zm-6.17,6A3.84,3.84,0,1,1,477,11.2,3.89,3.89,0,0,1,473.21,15Z"/><path class="cls-1" d="M457.43,24.3a3.89,3.89,0,0,1-4.52,1.88,3.81,3.81,0,0,1-2.71-3.65,3.89,3.89,0,0,1,3.33-3.82c-.17-.68-.32-1.33-.49-2a.82.82,0,0,0-.05.17,1.33,1.33,0,0,1-2.27.88c-.34-.28-.71-.5-1-.72l-1.18,1.19c.29.41.6.84.88,1.29a1.27,1.27,0,0,1-.79,1.95l-.78.16c-.81.16-.81.16-.81,1,0,.14,0,.29,0,.44s0,.3.26.33c.42.07.83.17,1.25.27a1.27,1.27,0,0,1,.8,2.07c-.27.41-.56.81-.86,1.26l.58.55c.2.2.38.41.56.61l1.32-.91a1.27,1.27,0,0,1,2,.79c.11.43.18.88.29,1.31,0,.1.12.24.19.25.46,0,.91,0,1.37,0l.31-1.43a1.29,1.29,0,0,1,2.14-.86c.4.26.79.54,1.22.83.38-.39.73-.78,1.11-1.13a.44.44,0,0,0,.09-.6C459.19,25.36,458.22,24.94,457.43,24.3Z"/><path class="cls-1" d="M452.65,6.67l-4.47-3.19-.74,1,4.47,3.19Z"/><path class="cls-1" d="M451.48,9.76,446.38,11c.11.43.2.81.31,1.24l5.1-1.28C451.69,10.58,451.59,10.19,451.48,9.76Z"/><path class="cls-1" d="M455.45,5.11c-.43-1.71-.86-3.39-1.3-5.11l-1.24.33c.45,1.72.88,3.4,1.31,5.1Z"/><path class="cls-1" d="M467.59,32.77h-5.06V34h5.06Z"/><path class="cls-1" d="M476.15,28.12,480,31.31l.82-1L477,27.14Z"/><path class="cls-1" d="M481.42,23.8c-.33,0-.66,0-1,0h-3.22v1.27h4.45c0-.37,0-.73,0-1.09C481.65,23.91,481.5,23.81,481.42,23.8Z"/><path class="cls-1" d="M473.37,33.35h1.25V28.94h-1.25Z"/><path class="cls-1" d="M475.33,18.65a.59.59,0,0,0-.67.48c-.14.82-.25,1.63-.37,2.45a8.62,8.62,0,0,0,1.39-2.35C475.82,18.89,475.69,18.68,475.33,18.65Z"/></g></g></svg>