<svg xmlns="http://www.w3.org/2000/svg" viewBox="0 0 931 33.32"><defs><style>.cls-1{fill:#464e62;}</style></defs><title>line-interest</title><g id="Слой_2" data-name="Слой 2"><g id="Слой_1-2" data-name="Слой 1"><path class="cls-1" d="M480.37,14.89l-.23-.26a11.4,11.4,0,0,0,1-.85,3,3,0,0,0,.8-2.45,3.32,3.32,0,0,0-5.65-2.05c-.25.23-.48.49-.72.74l-4.67-4.67c-.41.42-.81.79-1.17,1.2a.92.92,0,0,0-.2.5c0,.5,0,1,0,1.5,0,.28.09.39.36.47a5.5,5.5,0,0,1,.36,10.39l-.72.26v6.68h-3.7a.69.69,0,0,0-.38.08c-.27.2-.51.44-.73.63l6.25,6.25,4.65-4.65c.26.28.48.58.75.82a3.3,3.3,0,0,0,5.31-1.41,3.2,3.2,0,0,0-.81-3.46c-.19-.2-.41-.37-.63-.57l.32-.34,3-3,1.33-1.29v-.07l-.14-.11Z"/><path class="cls-1" d="M467.3,17.58c.39,0,.73,0,1.07,0a3.31,3.31,0,0,0,.37-6.57c-.47-.07-.94-.06-1.46-.09V4.36h-6.57c0-.42,0-.79,0-1.17a3.31,3.31,0,0,0-6.57-.44c-.08.53-.07,1.06-.1,1.63h-6.51v6.54c.5,0,1,0,1.44.09a3.18,3.18,0,0,1,1.89,1,3.29,3.29,0,0,1,.77,3.08,3.14,3.14,0,0,1-3.32,2.49h-.79v6.55h6.54a1.93,1.93,0,0,0,0-.23,10.05,10.05,0,0,1,.11-1.56,3.31,3.31,0,0,1,6.53.68c0,.37,0,.73,0,1.11h6.59Z"/><rect class="cls-1" y="15.66" width="440.04" height="2"/><rect class="cls-1" x="490.96" y="15.66" width="440.04" height="2"/></g></g></svg>