<svg xmlns="http://www.w3.org/2000/svg" viewBox="0 0 931 31.48"><defs><style>.cls-1{fill:#464e62;}</style></defs><title>line-education</title><g id="Слой_2" data-name="Слой 2"><g id="Слой_1-2" data-name="Слой 1"><path class="cls-1" d="M483.33,6.22,466,.11a1.63,1.63,0,0,0-1.19,0Q456.2,3.17,447.56,6.2a1.54,1.54,0,0,0-1,.9v.51a1.46,1.46,0,0,0,.9.85q8.7,3.07,17.39,6.18a1.68,1.68,0,0,0,1.21,0L483.3,8.5a1.4,1.4,0,0,0,.91-.7C484.5,7.14,484.16,6.51,483.33,6.22Z"/><path class="cls-1" d="M466.76,16.73a3.69,3.69,0,0,1-2.6,0l-4.64-1.66-5.2-1.84s0,3.21,0,4.62a2,2,0,0,0,.84,1.78,11.48,11.48,0,0,0,2.08,1.16,20.17,20.17,0,0,0,6,1.28,25.45,25.45,0,0,0,9.66-1,7.85,7.85,0,0,0,2.84-1.43,2.17,2.17,0,0,0,.82-1.77c0-1.42,0-4.63,0-4.63Z"/><path class="cls-1" d="M481.89,21.26a.55.55,0,0,1-.25-.51c0-3,0-9.32,0-9.32l-2.22.79s0,5.78,0,8.46a.69.69,0,0,1-.28.61,2.18,2.18,0,0,0,0,3.45.66.66,0,0,1,.27.59c0,1.66,0,3.32,0,5a1.12,1.12,0,0,0,.85,1.14,1.1,1.1,0,0,0,1.36-1.15c0-1.68,0-3.37,0-5.05a.64.64,0,0,1,.21-.45A2.22,2.22,0,0,0,481.89,21.26Z"/><rect class="cls-1" y="14.74" width="440.04" height="2"/><rect class="cls-1" x="490.96" y="14.74" width="440.04" height="2"/></g></g></svg>