<svg xmlns="http://www.w3.org/2000/svg" viewBox="0 0 931 29.47"><defs><style>.cls-1{fill:#464e62;}</style></defs><title>line-language</title><g id="Слой_2" data-name="Слой 2"><g id="Слой_1-2" data-name="Слой 1"><rect class="cls-1" y="13.74" width="440.04" height="2"/><rect class="cls-1" x="490.96" y="13.74" width="440.04" height="2"/><path class="cls-1" d="M484.72,13.21A5.27,5.27,0,0,0,479.48,9H472.1V8.55c0-1.1,0-2.21,0-3.32A5.24,5.24,0,0,0,466.91,0q-7.1-.06-14.18,0A5,5,0,0,0,448,3.08a12.11,12.11,0,0,0-.52,1.61v7.45a.86.86,0,0,1,.07.21,5.09,5.09,0,0,0,2.89,4,17.33,17.33,0,0,0,2.21.7s0,0,0,.08c-.06.57-.1,1.14-.18,1.71a1.43,1.43,0,0,0,2,1.59A6.31,6.31,0,0,0,458,17.17a.44.44,0,0,1,.47-.3c1.53,0,3.06,0,4.59,0l.34,0v.46c0,1.19,0,2.39,0,3.58a5.2,5.2,0,0,0,4.82,4.86c1.83.09,3.67,0,5.5,0a.51.51,0,0,1,.55.34,6.23,6.23,0,0,0,3.44,3.14,1.42,1.42,0,0,0,2-1.61c-.08-.61-.13-1.23-.19-1.85.29,0,.52-.05.74-.09a5.29,5.29,0,0,0,4.45-5.34q0-3,0-6A5.23,5.23,0,0,0,484.72,13.21Zm-1.35,7.51a3.8,3.8,0,0,1-3.89,3.65c-1.22,0-1.32.37-1.27,1.33,0,.75.11,1.5.17,2.28A4.91,4.91,0,0,1,475.44,25a.92.92,0,0,0-1-.66c-1.84,0-3.69,0-5.54,0a3.86,3.86,0,0,1-3.23-1.54,3.21,3.21,0,0,1-.76-1.93c0-2.25-.05-4.5,0-6.75a8.13,8.13,0,0,1,.41-1.65,1.32,1.32,0,0,0,0-.76.87.87,0,0,0-.59-.39.65.65,0,0,0-.69.42,5.69,5.69,0,0,0-.64,2.71v.92H458.1c-.85,0-.92.05-1.24.83a4.8,4.8,0,0,1-2.61,2.66.85.85,0,0,1-.17.06H454c0-.41.09-.81.12-1.22s.06-1,.06-1.49-.27-.85-.85-.85a4.38,4.38,0,0,1-2.35-.51A3.68,3.68,0,0,1,449,11.77c-.05-2.22-.05-4.43,0-6.65a3.81,3.81,0,0,1,3.68-3.63c1.31,0,2.62,0,3.94,0,3.36,0,6.73,0,10.09,0a3.83,3.83,0,0,1,3.88,3.31,14.87,14.87,0,0,1,.05,1.89V9h-.85c-.57,0-.91.28-.9.73s.34.73.9.73q4.66,0,9.33,0a4.29,4.29,0,0,1,2.31.51,3.69,3.69,0,0,1,1.94,3.15C483.42,16.31,483.41,18.52,483.37,20.72Z"/><path class="cls-1" d="M461.85,6.43c.08-.33.21-.42.51-.39a2.12,2.12,0,0,0,.44,0,.7.7,0,0,0,.56-.81c-.06-.4-.33-.61-.85-.62h-2.33c-.24,0-.32-.07-.31-.31a6.32,6.32,0,0,0,0-.87.69.69,0,0,0-.8-.62c-.38,0-.61.32-.63.8,0,.32,0,.65,0,1h-.78c-.69,0-1.38,0-2.07,0a.63.63,0,0,0-.63.6.63.63,0,0,0,.37.72,1.52,1.52,0,0,0,.6.11h4.55a7.13,7.13,0,0,1-1.32,2.71c-.3-.49-.54-1-.83-1.38a1.4,1.4,0,0,0-.56-.47.61.61,0,0,0-.71.25A.75.75,0,0,0,457,8l1.12,1.88c-.23.2-.47.44-.73.63-.61.43-1.25.83-1.86,1.28a1.12,1.12,0,0,0-.47.59,1,1,0,0,0,.27.69.63.63,0,0,0,.84,0l3.06-2.1a1.47,1.47,0,0,0,.2.17c.9.65,1.78,1.3,2.69,1.93a.7.7,0,0,0,1-.19.73.73,0,0,0-.26-1c-.21-.14-.45-.25-.65-.4L460.1,9.9l.36-.49A8.14,8.14,0,0,0,461.85,6.43Z"/><path class="cls-1" d="M475.28,14a1.31,1.31,0,0,0-2.43,0l-1.92,6.31c-.16.51-.07.73.44.93a2,2,0,0,0,.64.12.47.47,0,0,0,.53-.39c.09-.36.2-.71.28-1.06a.28.28,0,0,1,.32-.25,14.41,14.41,0,0,0,1.61,0c.41,0,.58.11.64.51s.14.49.19.74a.5.5,0,0,0,.57.46c.93,0,1.24-.45,1-1.28Zm-2,4.3c.26-.94.51-1.88.77-2.81h.07c.25.92.5,1.84.77,2.8Z"/><path class="cls-1" d="M466.66,9.5a.72.72,0,1,0,0,1.43.72.72,0,1,0,0-1.43Z"/></g></g></svg>