<svg xmlns="http://www.w3.org/2000/svg" viewBox="0 0 931 34.02"><defs><style>.cls-1{fill:#464e62;}</style></defs><title>line-contacts</title><g id="Слой_2" data-name="Слой 2"><g id="Слой_1-2" data-name="Слой 1"><path class="cls-1" d="M484,6.6A3,3,0,0,0,482,6H460.1c-.21,0-.37,0-.49-.25-.39-.82-.8-1.62-1.23-2.42A8.84,8.84,0,0,0,456.3.7a2.28,2.28,0,0,0-2.94-.28c-.16.11-.34.19-.5.29a10.88,10.88,0,0,0-5.28,8.72A15,15,0,0,0,449.46,18c1.64,3,3.4,6,5.19,9a15.24,15.24,0,0,0,4.41,4.67c4.21,2.89,8.57,3.29,13.07.64a1.94,1.94,0,0,0,1-1.67,4.84,4.84,0,0,0-.16-1.42,16.48,16.48,0,0,0-3.13-5.45,5.42,5.42,0,0,0-.91-.88,3.41,3.41,0,0,0-4.06-.3c-.44.25-.89.49-1.32.76a1.81,1.81,0,0,1-1.84.09,3.11,3.11,0,0,1-1.44-1.29c-1.26-2.19-2.53-4.36-3.79-6.55a2.73,2.73,0,0,1-.35-.91,2.11,2.11,0,0,1,.7-2.33c.51-.35,1.06-.63,1.36-.8.33.21.6.36.84.54l8.15,6.41a3,3,0,0,0,4.25,0l9-7.09,2.6-2V24.2c0,.82-.16,1-1,1h-7.94a.9.9,0,0,0-.93.9.89.89,0,0,0,.95.87c2.73,0,5.46,0,8.19,0a2.37,2.37,0,0,0,2.47-2.3q0-8.16,0-16.33A2.09,2.09,0,0,0,484,6.6ZM457.75,9.73c-.48.26-.94.57-1.43.82a3.78,3.78,0,0,0-2,4.08,5.13,5.13,0,0,0,.58,1.73c1.26,2.24,2.56,4.47,3.87,6.68A4.31,4.31,0,0,0,463,25.31a4,4,0,0,0,1.32-.41,14.37,14.37,0,0,0,1.53-.87,1.54,1.54,0,0,1,1.94.11,5,5,0,0,1,.74.71,15.9,15.9,0,0,1,2.61,4.25c.53,1.31.48,1.45-.73,2.1A9.21,9.21,0,0,1,466,32.25a10.8,10.8,0,0,1-7.22-3.15,13.9,13.9,0,0,1-2.69-3.19c-1.71-2.86-3.41-5.72-5-8.64a14,14,0,0,1-1.78-7.14,9.28,9.28,0,0,1,3.95-7.58,6.93,6.93,0,0,1,1.21-.7.52.52,0,0,1,.44,0,3,3,0,0,1,.69.58,15.28,15.28,0,0,1,2.76,5.09,3.71,3.71,0,0,1,.12.73A1.39,1.39,0,0,1,457.75,9.73Zm20.76.94-8,6.29c-1,.76-1.35.76-2.32,0l-7.94-6.24-.59-.43a3.52,3.52,0,0,0,.57-2.47h21.92Z"/><rect class="cls-1" y="16.01" width="440.04" height="2"/><rect class="cls-1" x="490.96" y="16.01" width="440.04" height="2"/></g></g></svg>