<svg xmlns="http://www.w3.org/2000/svg" viewBox="0 0 931 29.64"><defs><style>.cls-1{fill:#464e62;}</style></defs><title>line-code</title><g id="Слой_2" data-name="Слой 2"><g id="Слой_1-2" data-name="Слой 1"><rect class="cls-1" y="13.82" width="440.04" height="2"/><rect class="cls-1" x="490.96" y="13.82" width="440.04" height="2"/><path class="cls-1" d="M468.35,0a1.4,1.4,0,0,0-1.45,1.17c-.1.56-.17,1.11-.25,1.67a20.25,20.25,0,0,0-.3,2.05A20.53,20.53,0,0,0,466,7a16.7,16.7,0,0,0-.28,1.88,11.88,11.88,0,0,0-.26,1.69c-.12.74-.23,1.49-.35,2.23a18.31,18.31,0,0,0-.28,2,19.07,19.07,0,0,0-.34,2.14l-.27,1.79a14.8,14.8,0,0,0-.28,1.87c-.16.74-.26,1.48-.35,2.23h0a16.25,16.25,0,0,0-.29,2A18.93,18.93,0,0,0,463,27a5.08,5.08,0,0,0-.19,1.22,1.38,1.38,0,0,0,1.07,1.44,1.44,1.44,0,0,0,1.61-.89,5.18,5.18,0,0,0,.28-1.57,19.83,19.83,0,0,0,.36-2.33,20.47,20.47,0,0,0,.35-2.33,10.51,10.51,0,0,0,.27-1.77A10.51,10.51,0,0,0,467,19a9.07,9.07,0,0,0,.26-1.71,18.48,18.48,0,0,0,.36-2.33s0,0,0-.06a18.35,18.35,0,0,0,.33-2.1,15.9,15.9,0,0,0,.28-1.94h0A10.78,10.78,0,0,0,468.52,9h0a10.78,10.78,0,0,0,.27-1.78h0a20.5,20.5,0,0,0,.36-2.35c0-.08.05-.16.07-.25l.27-2a4.21,4.21,0,0,0,.18-1.32A1.5,1.5,0,0,0,468.35,0Z"/><path class="cls-1" d="M452.53,13a15.32,15.32,0,0,0,1.36-1.43A11.59,11.59,0,0,0,455,10.41c.5-.43.88-1,1.34-1.43a14.88,14.88,0,0,0,1.35-1.4c.44-.47,1-.83,1.17-1.52a1.36,1.36,0,0,0-2.22-1.4c-.42.41-.81.86-1.22,1.29a16.58,16.58,0,0,0-1.29,1.36l-1.44,1.52-1.35,1.42a11.64,11.64,0,0,0-1.08,1.14,15.27,15.27,0,0,0-1.3,1.37,6.7,6.7,0,0,0-1.31,1.5,1.34,1.34,0,0,0,.47,1.73c.55.69,1.2,1.29,1.8,1.94l1.52,1.6a14.52,14.52,0,0,0,1.21,1.27A15.21,15.21,0,0,0,454,22.23a16.74,16.74,0,0,0,1.53,1.62c.34.37.66.76,1,1.11a1.42,1.42,0,0,0,1.81.11,1.28,1.28,0,0,0,.49-1.52,4,4,0,0,0-1.17-1.42,16.64,16.64,0,0,0-1.35-1.43L455,19.28l-1.44-1.53-1.86-2c-.2-.21-.37-.45-.59-.64s-.26-.41,0-.63A13.44,13.44,0,0,0,452.53,13Z"/><path class="cls-1" d="M484.7,14.26a6,6,0,0,0-1.23-1.42,13.56,13.56,0,0,0-1.28-1.35h0a12.17,12.17,0,0,0-1.26-1.33,12.26,12.26,0,0,0-1.26-1.34,18.53,18.53,0,0,0-1.43-1.52,18.51,18.51,0,0,0-1.43-1.51c-.37-.4-.72-.82-1.13-1.19a1.25,1.25,0,0,0-1.52-.13,1.34,1.34,0,0,0-.68,1.41c.11.75.74,1.11,1.18,1.61A20.55,20.55,0,0,0,476.09,9a15.73,15.73,0,0,0,1.25,1.33l1.25,1.35L479.84,13l1.43,1.53c.26.21.22.4,0,.61a6.28,6.28,0,0,0-.49.54L479.48,17a12.51,12.51,0,0,0-1.17,1.24A18.48,18.48,0,0,0,476.7,20a16.42,16.42,0,0,0-1.52,1.6,12.11,12.11,0,0,0-1.57,1.71,1.18,1.18,0,0,0-.19.58,1.31,1.31,0,0,0,.82,1.34,1.38,1.38,0,0,0,1.59-.29c.46-.47.89-1,1.33-1.47a12.69,12.69,0,0,0,1.53-1.58,14.58,14.58,0,0,0,1.51-1.63,13.61,13.61,0,0,0,1.61-1.7,9.83,9.83,0,0,0,1.26-1.32,13,13,0,0,0,1.25-1.32,1.28,1.28,0,0,0,.38-1.64Z"/></g></g></svg>