<?xml version="1.0" encoding="utf-8"?>
<!-- Generator: Adobe Illustrator 23.1.0, SVG Export Plug-In . SVG Version: 6.00 Build 0)  -->
<svg version="1.1" id="Слой_1" xmlns="http://www.w3.org/2000/svg" xmlns:xlink="http://www.w3.org/1999/xlink" x="0px" y="0px"
	 viewBox="0 0 19.6 21.9" style="enable-background:new 0 0 19.6 21.9;" xml:space="preserve">
<style type="text/css">
	.st0{fill:#464E62;}
</style>
<title>locacion</title>
<g>
	<g id="Слой_2-2">
		<path class="st0" d="M13.8,14.7c1.6-2.3,3.1-5.1,3.1-7.6c-0.1-3.9-3.4-7-7.3-6.8C5.9,0.4,2.9,3.4,2.8,7.1c0,2.4,1.6,5.3,3.2,7.6
			c-3,0.5-5.9,1.6-5.9,3.5c0,2.5,5.1,3.8,9.8,3.8s9.8-1.3,9.8-3.8C19.6,16.3,16.8,15.2,13.8,14.7z M9.8,1c3.4,0,6.1,2.7,6.1,6.1
			c0,4-4.7,9.4-6.1,10.9c-1.4-1.5-6.1-7-6.1-10.9C3.8,3.7,6.5,1,9.8,1z M9.8,20.8c-5.4,0-8.7-1.5-8.7-2.6c0-0.8,1.9-2,5.5-2.4
			c1.4,1.9,2.7,3.2,2.8,3.3l0.4,0.4l0.4-0.4c1-1.1,1.9-2.2,2.8-3.3c3.4,0.4,5.5,1.5,5.5,2.4C18.5,19.2,15.2,20.8,9.8,20.8z"/>
		<path class="st0" d="M13.1,7.2c0-1.8-1.5-3.2-3.2-3.2C8,3.9,6.6,5.4,6.6,7.2s1.5,3.2,3.2,3.2l0,0C11.6,10.4,13.1,9,13.1,7.2z
			 M9.8,9.3c-1.2,0-2.1-0.9-2.1-2.1s0.9-2.1,2.1-2.1s2.1,0.9,2.1,2.1c0,0,0,0,0,0C11.9,8.3,11,9.3,9.8,9.3z"/>
	</g>
</g>
</svg>
