<?xml version="1.0" encoding="utf-8"?>
<!-- Generator: Adobe Illustrator 23.1.0, SVG Export Plug-In . SVG Version: 6.00 Build 0)  -->
<svg version="1.1" id="Слой_1" xmlns="http://www.w3.org/2000/svg" xmlns:xlink="http://www.w3.org/1999/xlink" x="0px" y="0px"
	 viewBox="0 0 14.7 22" style="enable-background:new 0 0 14.7 22;" xml:space="preserve">
<style type="text/css">
	.st0{fill:#464E62;}
</style>
<title>phone</title>
<g>
	<g id="Слой_2-2">
		<path class="st0" d="M12.7,0H2C0.9,0,0,0.9,0,2v18c0,1.1,0.9,2,2,2h10.7c1.1,0,2-0.9,2-2V2C14.7,0.9,13.8,0,12.7,0z M13.7,20
			c0,0.5-0.5,1-1,1H2c-0.5,0-1-0.4-1-1V2c0-0.6,0.4-1,1-1h10.7c0.6,0,1,0.4,1,1V20z"/>
		<path class="st0" d="M11.9,3.5H2.8C2.6,3.5,2.3,3.7,2.3,4c0,0.3,0.2,0.5,0.5,0.5h0h9.1c0.3,0,0.5-0.2,0.5-0.5S12.2,3.5,11.9,3.5
			L11.9,3.5z"/>
		<path class="st0" d="M11.9,17.5H2.8c-0.3,0-0.5,0.2-0.5,0.5c0,0.3,0.2,0.5,0.5,0.5h9.1c0.3,0,0.5-0.2,0.5-0.5S12.2,17.5,11.9,17.5
			z"/>
	</g>
</g>
</svg>
