<?xml version="1.0" encoding="utf-8"?>
<!-- Generator: Adobe Illustrator 23.1.0, SVG Export Plug-In . SVG Version: 6.00 Build 0)  -->
<svg version="1.1" id="Слой_1" xmlns="http://www.w3.org/2000/svg" xmlns:xlink="http://www.w3.org/1999/xlink" x="0px" y="0px"
	 viewBox="0 0 360 311.5" style="enable-background:new 0 0 360 311.5;" xml:space="preserve">
<style type="text/css">
	.st0{fill:#FFF4E3;}
</style>
<title>photoghraphy</title>
<g>
	<g id="Слой_1-2">
		<path class="st0" d="M360,92.8C360,67,340.8,48,314.9,48c-15.8,0-31.5,0-47.3,0c-2.2,0-3.3-0.6-4-2.8c-1.7-5.6-3.6-11.1-5.6-16.6
			c-6.2-17.1-22.4-28.5-40.6-28.5c-25-0.1-50-0.1-75,0c-18.2,0.1-34.4,11.5-40.6,28.5c-1.9,5.1-3.7,10.4-5.2,15.6
			c-0.8,2.8-2,3.9-5.2,3.8c-15.3-0.2-30.5,0-45.7,0C18.9,48,0,66.8,0,93.6v172.2c0,26.8,18.9,45.7,45.8,45.7H180c45,0,90,0,135,0
			c25.8,0,45-19.1,45-45C360,208.6,360,150.7,360,92.8z M336,265.8c0,13.7-8.1,21.7-22,21.7H46.3C32,287.5,24,279.6,24,265.4V94
			c0-14.1,8-22.1,22-22.1c18.7,0,37.5,0,56.2,0c7.6,0,11.3-2.6,13.7-9.7c2.7-7.9,5.2-15.8,7.9-23.7C127,29,133.9,24,143.8,24
			c24.1,0,48.2,0,72.4,0c9.9,0,16.8,5,20,14.4c2.7,8,5.3,16.1,8.1,24.1c2.3,6.7,6.1,9.4,13.2,9.4c18.9,0,37.7,0,56.6,0
			c13.9,0,22,8,22,21.7C336,151,336,208.4,336,265.8L336,265.8z"/>
		<path class="st0" d="M179.8,83.9c-49.4,0-89.8,40.4-89.8,89.9c0.1,49.6,40.3,89.7,89.9,89.8c49.6,0.1,90.1-40.1,90.1-89.5
			c0.1-49.7-40.1-90.1-89.8-90.2C180,83.9,179.9,83.9,179.8,83.9z M179.9,239.6c-36.4-0.1-65.9-29.6-65.9-65.7
			c0-36.5,29.5-66,65.9-66.1c0.2,0,0.5,0,0.7,0c36,0.1,65.4,29.9,65.4,66.2C245.9,210.1,216.1,239.7,179.9,239.6z"/>
		<path class="st0" d="M299.9,95.9c-6.6,0-12,5.4-11.9,12.1s5.4,12,12.1,11.9c6.6,0,12-5.4,11.9-12.1c0,0,0-0.1,0-0.1
			C311.9,101.1,306.5,95.8,299.9,95.9z"/>
	</g>
</g>
</svg>
