<?xml version="1.0" encoding="utf-8"?>
<!-- Generator: Adobe Illustrator 23.1.0, SVG Export Plug-In . SVG Version: 6.00 Build 0)  -->
<svg version="1.1" id="Слой_1" xmlns="http://www.w3.org/2000/svg" xmlns:xlink="http://www.w3.org/1999/xlink" x="0px" y="0px"
	 viewBox="0 0 22.3 15.9" style="enable-background:new 0 0 22.3 15.9;" xml:space="preserve">
<style type="text/css">
	.st0{fill:#464E62;}
</style>
<title>post</title>
<g>
	<g id="Слой_2-2">
		<path class="st0" d="M22.3,2.2c0-0.6-0.3-1.2-0.7-1.6l0,0l0,0C21.2,0.2,20.7,0,20.1,0H2.2c-0.5,0-1,0.2-1.4,0.5l0,0
			C0.3,1,0,1.6,0,2.2v11.5c0,0.6,0.2,1.2,0.7,1.6l0,0c0,0,0.1,0,0.1,0.1c0.4,0.3,0.9,0.5,1.4,0.5h17.9c0.5,0,0.9-0.2,1.3-0.4
			c0.1,0,0.2-0.1,0.2-0.1c0.1-0.1,0.1-0.1,0.1-0.2c0.4-0.4,0.6-0.9,0.6-1.5L22.3,2.2z M15.2,7.9l6-6.2c0.1,0.2,0.1,0.3,0.1,0.5v11.5
			c0,0.2,0,0.3-0.1,0.5L15.2,7.9z M20.1,1c0.1,0,0.2,0,0.3,0.1l-8.6,9c-0.2,0.2-0.4,0.3-0.7,0.3c-0.3,0-0.5-0.1-0.7-0.3L1.9,1
			C2,1,2.1,1,2.2,1H20.1z M1.1,14.2C1,14,1,13.9,1,13.7V2.2C1,2,1.1,1.8,1.1,1.7l5.9,6.2L1.1,14.2z M2.2,14.9c-0.1,0-0.3,0-0.4-0.1
			l5.9-6.2l2,2.1c0.4,0.4,0.9,0.6,1.4,0.6l0,0c0.5,0,1-0.2,1.4-0.6l2-2.1l5.9,6.2c-0.1,0-0.2,0.1-0.3,0.1H2.2z"/>
	</g>
</g>
</svg>
