<?xml version="1.0" encoding="utf-8"?>
<!-- Generator: Adobe Illustrator 23.1.0, SVG Export Plug-In . SVG Version: 6.00 Build 0)  -->
<svg version="1.1" id="Слой_1" xmlns="http://www.w3.org/2000/svg" xmlns:xlink="http://www.w3.org/1999/xlink" x="0px" y="0px"
	 viewBox="0 0 363.8 365.9" style="enable-background:new 0 0 363.8 365.9;" xml:space="preserve">
<style type="text/css">
	.st0{fill:#FFF4E3;}
</style>
<title>reading</title>
<g>
	<g id="Слой_1-2">
		<path class="st0" d="M358.5,236.6c-3.3,0-5.4,2.1-5.4,6.1c-0.1,8.2-0.2,16.4,0,24.6c0.1,3.2-1,4.9-3.8,6.4
			c-34.1,19.1-68.2,38.3-102.3,57.5c-10.5,5.9-21,11.8-31.4,17.6c-3.3,1.8-4.2,1.3-4.3-2.5c0-1,0-1.9,0-2.9
			c0-71.9,0-143.9-0.1-215.8c0-4.3,1.3-6.5,5-8.6c43.7-24.4,87.4-48.9,131-73.6c0.9-0.5,1.9-1.1,2.8-1.5c1.8-0.9,2.8-0.2,3,1.6
			c0.1,1.2,0.1,2.4,0.1,3.6c0,51.4,0,102.9,0,154.3c-0.1,1.5,0,3.1,0.2,4.6c0.2,2.6,2.4,4.7,5.1,4.6c3,0.1,4.9-1.6,5.3-4.7
			c0.1-1.3,0.2-2.6,0.1-3.9c0-51.9,0-103.8,0-155.8c0-1.3,0-2.6-0.1-3.9c-0.5-6.9-6.6-12.1-13.5-11.6c-1.6,0.1-3.2,0.6-4.7,1.3
			c-1.4,0.7-2.7,1.4-3.6,1.9c-5.7-5.5-11.1-10.6-16.4-16c-2.4-2.4-4.9-3.2-8-2.2c-3.8,1.1-7.5,2.2-11.3,3.4
			c-5.3,1.7-10.4,3.4-15.9,5.3c0-6.5-0.1-12.7,0-18.9c0.1-3.2-0.9-5.8-3.5-7.6h-3.6c-10.2,5-20.8,9.5-30.6,15.2
			c-32.2,18.8-56.2,45-70,80.1c-0.2,0.5-0.5,1-0.8,1.7c-3-6.3-5.6-12.4-8.7-18.2c-17.8-33.2-45-56.3-78.6-72.4
			C90,4.1,85.2,2.1,80.4,0h-3.6c-2.9,1.9-3.6,4.7-3.5,8c0.2,6.1,0.1,12.2,0.1,18.4c-8.8-2.8-17.2-5.2-25.4-8c-4.6-1.6-7.8-0.5-11,3
			c-4.7,5.1-10,9.8-14.4,14.1c-4.1-0.9-7.9-2.6-11.6-2.3C4,33.6,0,39.3,0,47.7c0,69.7,0,139.3,0,209c0,4.4,0,8.8,0,13.2
			c-0.2,5,2.6,9.7,7.1,11.9c45.4,25.5,90.9,51,136.3,76.5c2.7,1.5,6.3,1.5,9.5,2.2c1,0.1,1.9,0.4,2.7,1c2.7,2.9,6.6,4.5,10.6,4.3
			c10.5-0.1,21-0.1,31.4,0c4,0.2,7.8-1.4,10.6-4.3c0.6-0.7,1.4-1,2.3-1c4.1,0.9,7.5-0.6,10.8-2.5c25.2-14.2,50.4-28.4,75.6-42.5
			c19.7-11.1,39.4-22.2,59.1-33.2c4.3-2.4,7.5-5.7,7.6-10.8c0.2-9.9,0.2-19.8,0.1-29.6c0.1-2.8-2.1-5.1-4.8-5.2
			C358.7,236.6,358.6,236.6,358.5,236.6z M279.7,13.3c0,5.7,0.2,10.8-0.1,15.9c-0.1,1.1-1.8,2.6-3,3.1C255,42,234.8,53.7,216.6,68.8
			c-5.4,4.5-10.5,9.4-15.9,13.9C218.5,50.3,245.6,28.5,279.7,13.3z M152.5,236c0,36.4,0,72.9,0,109.3c0,5.2-0.8,5.6-5.2,3.1
			c-44.3-24.9-88.5-49.8-132.8-74.7c-2.7-1.5-3.8-3.2-3.8-6.4c0.1-73,0.1-146,0.1-218.9v-1.1c0.1-4.1,0.9-4.6,4.4-2.6
			c6.8,3.8,13.7,7.7,20.5,11.5c37.7,21.2,75.5,42.4,113.2,63.6c2.8,1.6,3.8,3.3,3.8,6.4C152.5,162.9,152.5,199.4,152.5,236z
			 M152.2,109.8C113.5,87.6,74.6,65.9,35.7,44c-1.1-0.6-2.2-1.3-4.1-2.5c4.4-4.1,8.3-8.1,12.5-11.8c0.8-0.7,2.7-0.6,3.9-0.2
			C65,34.5,81.5,41,97.3,49.1c1.2,0.6,2.3,1.2,3.5,1.7c3,1.3,5.8,0.3,7.2-2.6c1.3-2.4,0.4-5.5-2.1-6.8c-0.1-0.1-0.2-0.1-0.3-0.2
			c-6.3-3.2-12.6-6.2-19-9.1c-1.7-0.5-2.8-2.2-2.6-4c0.1-4.7,0-9.5,0-14.3c23.5,4.6,70.8,46,78.7,68.4c-7.1-6.1-14.5-12.4-21.9-18.7
			c-1.4-1.2-2.8-2.2-4.3-3.2c-3.5-2.5-6.3-2.3-8.4,0.6c-1.9,2.7-1.2,5.4,1.9,8c7.3,6.1,15,11.8,21.7,18.5
			c7.1,7.2,13.2,15.3,19.6,23.1c0.6,0.8,1.1,1.7,1.5,2.6C165.5,114,159,113.6,152.2,109.8L152.2,109.8z M197.8,355.2
			c-10.6,0-21.2,0-31.7,0c-1.9,0-2.8-0.8-2.8-2.8c0.1-3.7,0-7.3,0-11.3h37.3c0,3.9,0,7.6,0,11.2
			C200.6,354.3,199.7,355.1,197.8,355.2L197.8,355.2z M163.4,162v-12.6h36.9V162H163.4z M200.3,173v133.3h-36.8V173.1L200.3,173z
			 M200.3,317.3v12.5h-36.9v-12.4L200.3,317.3z M200.5,138.1h-37.3c0-3.9-0.2-7.7,0.1-11.5c0.4-1.2,1.4-2.1,2.6-2.3
			c10.7-0.2,21.4-0.2,32.1,0c1.2,0.4,2.1,1.3,2.4,2.5C200.7,130.6,200.5,134.2,200.5,138.1L200.5,138.1z M190.2,112.8
			c5-6.3,9.6-12.5,14.7-18.2c20.5-22.6,45.5-39,73.2-51.1c12.2-5.3,24.9-9.3,37.4-14c2.3-0.9,3.8-0.5,5.6,1.3
			c3.4,3.6,7.2,6.8,11.3,10.6l-27.8,15.7c-30.2,17-60.4,33.8-90.4,51C206.9,112.4,199.7,115,190.2,112.8L190.2,112.8z"/>
		<path class="st0" d="M226.9,188.7c0.1,5.8,3.9,8.1,9,5.3c4.5-2.5,8.9-5,13.3-7.6c27.9-15.9,55.7-31.8,83.6-47.7
			c2.9-1.6,4.9-3.5,4.8-7.2c-0.1-10.7,0-21.4-0.1-32.1c0-5.6-4.1-7.9-8.9-5.2c-6.4,3.6-12.8,7.3-19.2,10.9
			c-26.1,14.9-52.2,29.8-78.4,44.7c-3.1,1.7-4.4,3.9-4.3,7.4c0.2,5.1,0.1,10.2,0.1,15.3C226.8,178,226.8,183.3,226.9,188.7z
			 M237.6,160c0.2-1,0.7-1.9,1.6-2.4c28.9-16.5,57.8-33,86.7-49.5c0.3,0,0.6,0,0.9,0c0,5.4-0.3,10.8,0.1,16.2
			c0.3,4.1-1.1,6.2-4.8,8.3c-26.2,14.7-52.3,29.8-78.4,44.7c-1.9,1.1-3.7,2.1-6.2,3.5C237.6,173.3,237.5,166.7,237.6,160z"/>
		<path class="st0" d="M176.7,272.8c0.3,2.6,2.6,4.6,5.3,4.4c2.5,0.1,4.7-1.7,5-4.2c0.2-1.3,0.3-2.6,0.2-3.9c0-9.7,0-19.5,0-29.3
			c0-9.8,0-19.5,0-29.3c0-1.2,0-2.4-0.1-3.6c-0.4-3-2.3-4.7-5.3-4.7c-2.9,0-4.6,1.7-5.1,4.5c-0.1,0.9-0.2,1.9-0.1,2.8
			c0,20,0,40,0,59.9C176.5,270.6,176.6,271.7,176.7,272.8z"/>
	</g>
</g>
</svg>
