<?xml version="1.0" encoding="utf-8"?>
<!-- Generator: Adobe Illustrator 23.1.0, SVG Export Plug-In . SVG Version: 6.00 Build 0)  -->
<svg version="1.1" id="Слой_1" xmlns="http://www.w3.org/2000/svg" xmlns:xlink="http://www.w3.org/1999/xlink" x="0px" y="0px"
	 viewBox="0 0 384 242.8" style="enable-background:new 0 0 384 242.8;" xml:space="preserve">
<style type="text/css">
	.st0{fill:#FFF4E3;}
</style>
<title>sports</title>
<g>
	<g id="Слой_1-2">
		<path class="st0" d="M383.3,152.3c-4.8-39.9-41.3-71-81.5-69.2c-6.9,0.3-13.8,1.5-20.9,2.4c-6.2-16.7-12.5-33.5-19-50.8
			c10.6,0,20.6,0,30.6,0c0.8,0,1.6,0.4,2.1,1.1c2.9,5.1,7.3,7.7,13.1,8.2c0.8,0.1,1.5,1.6,2.2,2.4c-0.8,0.6-1.6,1.6-2.5,1.7
			c-2.1,0.3-4.3,0-6.4,0.1c-8.7,0.4-14.9,6.8-14.7,15.2c0.1,8.2,6.5,14.3,15,14.5c2.6,0.1,5.3,0.1,7.9,0c16.3-0.7,29.8-14,30.5-29.9
			c1-16.6-10.9-31.2-27.4-33.5c-6.8-1-12.9,0.3-16.7,6.5c-1.3,2-2.7,2.5-4.8,2.5c-11.6-0.1-23.2,0-34.9,0c-6.8,0-9,3.2-6.6,9.6
			c1.6,4.3,3.1,8.5,4.9,13.3h-4.7c-34.8,0-69.5-0.1-104.2,0.1c-4.6,0-6.6-1.3-7.9-5.6c-0.8-2.8-1.4-4.9,1.5-6.6
			c0.7-0.5,1.3-1.2,1.7-2c1.6-3.3,4.4-4,7.8-3.9c6.9,0.2,13.7,0.2,20.6,0c8.4-0.2,12.6-7.1,8.7-14.5c-4.4-8.4-11.4-13.4-20.9-13.6
			C137-0.1,117.1,0,97.2,0.1C89.9,0.3,84,6.3,84,13.6c-0.3,11.7,7.7,21.9,19,24.6c4,0.9,8.2,0.8,12.3,0.8c9.6,0.1,9.5,0.1,12.9,8.8
			c1,2.3,0.9,4.9-0.3,7c-5.2,10.1-10.2,20.3-15.3,30.4c-0.6,1.2-1.3,2.3-1.9,3.5c-1.1-0.4-1.8-0.7-2.5-0.9
			C61.6,71.4,12.9,97.8,1.9,145.6c-0.7,3.1-1.3,6.4-1.9,9.5v15.7c0.3,0.7,0.5,1.4,0.7,2.1c4.5,29.7,20.4,50.9,47.8,63.3
			C54,238.7,60,240,66,241.4c2.8,0.7,5.7-1,6.4-3.9c0-0.1,0.1-0.2,0.1-0.3c0.7-2.9-1-5.6-4.1-6.6c-0.8-0.3-1.7-0.4-2.6-0.6
			c-36.1-7.6-59.9-42.5-53.6-78.6c6.2-36.3,39.9-61.3,76.5-56.7c5.7,0.7,11.3,2.5,17.3,3.9l-3.6,7.1C63.2,92,28.3,116.4,20.5,148.5
			c-7.9,32.7,12.9,66.4,45.7,73.9c33.8,7.7,70-14.2,75.1-53.9c1.2,0,2.4,0,3.6,0s2.2,0.1,3.3,0.2c0.1,0.4,0.2,0.8,0.2,1.2
			c0,0.7,0,1.5-0.1,2.2c-4.9,28-20.6,46.9-47.6,56.3c-2.8,1-5.8,1.4-8.7,2.3c-3.2,0.9-4.8,3.5-4.3,6.5s3.2,4.8,6.4,4.4
			c0.9-0.1,1.7-0.3,2.6-0.5c29.2-7,49-24.6,59.3-52.8c0.6-1.7,1.1-3.4,1.6-4.7c3.9,1.8,7.5,3.5,11,5.3c0.9,0.5,1.5,1.3,1.7,2.3
			c0.2,3.1,0.1,6.2,0.1,9.6c-2,0-3.6-0.1-5.2,0c-3.2,0.3-5.1,2.2-5.2,5.3s1.7,5.6,4.8,5.7c7.5,0.3,15,0.3,22.5,0
			c3.1-0.1,4.9-2.4,4.9-5.6s-2-5-5.1-5.4c-1.8-0.1-3.6-0.1-5.4,0c0-3,0.2-5.5,0-8s0.6-3.6,3.1-4.5c10-3.5,16-10.6,18-21.1
			c1.4-7.6-0.8-14.3-4.9-20.7l66.4-73.4l6.2,16.9c-1.3,0.7-2.3,1.3-3.3,1.8c-30,15.4-47.2,48-42.9,81.4c5,37.5,36.2,67,73.4,69.4
			c38.7,2.5,73.1-21.7,83.3-58.8c1.2-4.3,1.9-8.7,2.9-13v-15.7C383.7,154.2,383.5,153.2,383.3,152.3z M308.2,25.7
			c2.4-0.1,4.7,0.2,6.9,1.1c9.1,3.3,14.7,12.6,13.3,22.2c-1.5,9.7-9.6,17.1-19.5,17.6c-1.1,0.1-2.3,0-3.4,0l0,0c-1.3,0-2.5,0-3.7,0
			c-2.4,0-4.2-1-4.2-3.7s1.9-3.5,4.3-3.6c2.1,0,4.2,0,6.4-0.1c7.4-0.3,13.1-6.4,12.8-13.8c-0.2-6.3-4.9-11.6-11.1-12.7
			c-0.9-0.1-2,0-2.5-0.4c-1.2-1-3-2.6-2.8-3.5C305.2,27.3,306.6,26.1,308.2,25.7z M126.5,27.7c-6,0.4-12,0.3-17.9,0.1
			c-6.9-0.2-12.6-5.4-13.3-12.3c-0.2-2.8,0.7-4.2,3.7-4.2c19.1,0.1,38.2,0,57.3,0.1c4,0,7.4,1.8,10.3,5.8c-7,0-13.1,0.1-19.2,0
			c-6.5-0.1-11.4,2.4-15.4,7.6C130.6,26.5,128.6,27.5,126.5,27.7L126.5,27.7z M94.5,210.5c-26.4,8-54.2-6.9-62.2-33.3
			c-5-16.6-1.1-34.7,10.5-47.7c15.5-17.5,39.4-19.8,54.2-13.3c-4.9,9.7-9.5,19.2-14.4,28.6c-0.5,1-2.3,1.5-3.6,1.7
			c-8.2,0.8-14.6,6.9-15.2,14.9c-0.6,8,4.7,15.4,12.5,17.2c6.9,1.8,14.1-1.3,17.7-7.5c1.3-2.2,2.6-2.8,5-2.7c10.1,0.1,20.2,0,30.3,0
			C129.7,185.4,113.7,204.7,94.5,210.5L94.5,210.5z M85.2,162.8c-0.1,2.8-2.4,5-5.2,5c-2.8-0.1-5-2.4-5-5.2c0.1-2.7,2.4-4.9,5.2-4.8
			C83,157.9,85.2,160.1,85.2,162.8C85.2,162.9,85.2,162.9,85.2,162.8L85.2,162.8z M109.3,157.2c-3.5,0-7-0.1-10.5,0
			c-2.2,0.1-3.4-0.7-4.7-2.6c-1.8-2.6-1.6-4.5-0.2-7c4.5-8.7,8.9-17.5,13.5-26.7c12.9,9,20.3,20.8,22.4,36.3L109.3,157.2z
			 M148.3,157.1h-7.2c-2.5-19.8-12-35.2-28.8-46.2l3.2-6.4C132.2,111.8,149.1,139,148.3,157.1L148.3,157.1z M120.9,94l13.9-27.8
			c0.7,1.8,1.3,2.9,1.7,4.1c8.1,21.6,16,43.2,24.3,64.7c1.5,3.9,0.9,6-3.1,7.5C151.8,121.7,139.6,105.5,120.9,94z M181.6,177
			c0-4.4,0-8.7,0-13s-2-6.6-5.4-6.7c-3.6-0.1-5.8,2.3-5.9,6.7s0,8.6,0,13.1c-7.1-2.2-11.1-9.4-9.9-17.1c1.2-7.3,8.1-13.1,15.6-13
			c8.1,0.1,14.8,6.2,15.7,14.3C192.6,168.1,188.2,175.2,181.6,177z M257.5,63.8c-21.9,24.2-43.9,48.5-65.8,72.7
			c-0.7,0.8-1.5,1.6-1.6,1.7c-5.6-0.9-10.6-1.7-15.6-2.6c-0.9-0.2-1.6-0.9-2-1.7c-9.5-25.3-19-50.6-28.7-76.5h4.4
			c35.5,0,71,0,106.4,0.1c1.6,0,3.2,0.5,4.4,1.6C260.6,61,258.8,62.5,257.5,63.8L257.5,63.8z M333.9,224.7
			c-34.3,16.6-75.5,2.3-92-32c-0.3-0.7-0.6-1.4-1-2c-16.1-36.5,2.4-75.7,33.6-89.7c0.9,2.2,1.7,4.3,2.7,6.7c-1.1,0.7-2,1.3-2.9,1.8
			c-29.5,16.4-40.2,53.6-23.8,83.1s53.6,40.2,83.1,23.8c14.4-8,25-21.5,29.3-37.4c1.2-4.5-0.1-7.4-3.7-8.4c-3.4-0.9-5.8,1-7.1,5.4
			c-7.2,23.3-26.4,37.4-50,36.8c-22.2-0.6-42.2-17.1-47-38.9c-4.9-22.3,5.9-45.3,26.2-55.3c3.9,10.3,7.7,20.3,11.2,30.4
			c0.3,1-0.6,2.6-1.4,3.7c-5.3,6.7-4.6,16.3,1.6,22.1c6.1,5.8,15.5,6,21.8,0.4c5-4.4,6.9-10,5-16.6s-6.2-10.5-12.8-11.7
			c-2.3-0.4-3.4-1.2-4.2-3.4c-3.4-9.6-7.1-19.1-10.8-29c9.5-2.5,19.4-2,28.6,1.3c15.8,5.8,26.3,16.8,31.3,32.9
			c0.2,0.6,0.4,1.2,0.5,1.8c1.3,3.9,4,5.6,7.3,4.6c3-0.9,4.5-3.8,3.5-7.6c-3.3-13.2-11-24.9-21.9-33.1c-15-11.3-31.9-14.9-50.3-11.3
			c-1,0.2-1.9,0.3-3.2,0.5c-0.8-2.2-1.6-4.3-2.4-6.3c20.6-8.1,60.1-2.1,79.2,33.2C383.1,164.8,369.1,207.6,333.9,224.7L333.9,224.7z
			 M298.8,162.7c0.1-2.8,2.5-5,5.3-4.8c2.6,0.1,4.7,2.3,4.8,4.9c0.1,2.8-2.1,5.2-4.9,5.3c-2.8,0.1-5.2-2.1-5.3-4.9
			C298.8,163,298.8,162.8,298.8,162.7z"/>
	</g>
</g>
</svg>
