<?xml version="1.0" encoding="utf-8"?>
<!-- Generator: Adobe Illustrator 23.1.0, SVG Export Plug-In . SVG Version: 6.00 Build 0)  -->
<svg version="1.1" id="Слой_1" xmlns="http://www.w3.org/2000/svg" xmlns:xlink="http://www.w3.org/1999/xlink" x="0px" y="0px"
	 viewBox="0 0 371.4 371.4" style="enable-background:new 0 0 371.4 371.4;" xml:space="preserve">
<style type="text/css">
	.st0{fill:#FFF4E3;}
</style>
<title>travelling</title>
<g>
	<g id="Слой_1-2">
		<path class="st0" d="M246.6,250.9c-29.7-19.3-59.2-38.8-88.9-58.2c-2.5-1.6-3.4-3.3-3.2-6.3c0.6-10.1,1-20.2,1.1-30.3
			c0.1-4.8,0-9.8-1.2-14.4c-3.8-14.2-17.5-23.4-32.1-21.7c-15.2,2-26.6,14.5-26.4,29.6c0.1,12.4,0.7,24.7,1.4,37
			c0.1,2.9-0.8,4.4-3.1,6c-30,19.6-59.9,39.2-89.8,58.9C2,253,0,254.7,0,257.9c0,8.4-0.1,16.7,0,25.1c0.1,4.7,3.6,7.2,8.1,6
			c0.8-0.2,1.6-0.6,2.5-0.9l67.7-25c7-2.6,14-5.1,21.2-7.8c0.7,19,1.4,37.6,2.2,56.1c0.2,2.3-0.8,4.6-2.5,6.2
			c-14.2,14-28.2,28.2-42.3,42.3c-2.2,2.2-3.7,4.4-2.4,7.6s3.9,3.8,7,3.8c10.7-0.1,21.5,0.1,32.2-0.1c2.6-0.1,5.1-0.8,7.3-2.1
			c7.5-4.2,14.8-8.7,22.2-13.2c1.6-1.2,3.8-1.2,5.4,0c7.3,4.5,14.6,9,22.1,13.3c2.2,1.3,4.8,2,7.3,2.1c10.5,0.2,21,0,31.4,0.1
			c3.3,0,6.3-0.3,7.8-3.8s-0.7-5.9-3-8.1c-11.8-11.8-23.3-24-35.6-35.3c-6.6-6.1-10.5-12.2-8.3-21.3c0.5-1.9,0.1-4,0.2-6
			c0.5-13.7,1-27.4,1.6-41.5c1.9,0.7,3.5,1.2,5.1,1.8c28.3,10.4,56.6,20.9,84.8,31.3c6,2.2,9.5-0.3,9.5-6.6c0-7.1-0.2-14.2,0.1-21.3
			C251.9,256.1,250.3,253.3,246.6,250.9z M98.9,239.9c-0.1,1.4-1,2.7-2.2,3.5c-27.6,10.4-55.3,20.6-83,30.7
			c-0.6,0.2-1.1,0.3-1.7,0.4c0-4.2-0.1-8.1,0.1-12.1c0.2-1.2,0.9-2.2,1.8-2.8c27.1-17.9,54.3-35.8,81.5-53.6
			c0.7-0.4,1.5-0.8,2.3-1.1c0.3,7.6,0.6,14.8,0.9,22C98.8,231.2,99.1,235.6,98.9,239.9L98.9,239.9z M173.8,355.9
			c0.9,0.9,1.8,1.9,3.2,3.4c-6.8,0-12.8,0.1-18.9-0.1c-1.1,0-2.3-0.9-3.3-1.5c-7.9-4.7-15.9-9.4-23.7-14.3
			c-3.6-2.3-6.6-2.5-10.3-0.1c-7.5,4.8-15.3,9.4-23.1,13.8c-2.3,1.2-4.7,1.9-7.3,2.1c-4.9,0.3-9.9,0.1-16,0.1
			c11.9-11.9,22.8-23.1,34.2-33.9c4.1-3.9,5.5-7.9,5.3-13.5C111.7,262,109.9,212,108,162c-0.1-3.7-0.2-7.5-0.2-11.2
			c0-10.9,7.7-19,17.9-19s18.2,8,18,18.8c-0.4,18-1.1,35.9-1.7,53.8c-1.1,30.8-2.3,61.6-3.5,92.4c-0.2,5.9-0.3,11.7-0.7,17.6
			c-0.4,3.5,1,6.9,3.6,9.3C152.3,334.3,163,345.1,173.8,355.9L173.8,355.9z M239.6,274.7c-10.6-3.9-20.7-7.6-30.9-11.3
			c-17.6-6.5-35.3-13-52.9-19.5c-2.3-0.8-3.3-1.8-3.2-4.5c0.6-11.3,0.9-22.6,1.3-34.4c0.9,0.3,1.8,0.7,2.6,1.2
			c26.9,17.6,53.8,35.3,80.7,52.9c1.8,1.1,2.6,2.3,2.5,4.5C239.5,267.1,239.6,270.7,239.6,274.7L239.6,274.7z"/>
		<path class="st0" d="M323.6,0c-33-0.3-57.7,33.7-44.2,65c10,23.2,24.1,43.8,39,64c2.9,3.8,7.2,3.8,10.1,0
			c13.8-18.5,26.9-37.5,36.6-58.5c3.3-7.1,6.2-14.5,6.3-22.5C371.6,21.8,350,0.1,323.6,0z M357.2,58c-7.8,21-20.8,39-33.7,57.8
			c-12.2-17.4-23.9-34.2-32-53c-8.9-20.7-0.1-41.6,20.1-48.7c23.1-8.1,47.7,9,47.6,33.4C359.2,51.1,358.5,54.7,357.2,58z"/>
		<path class="st0" d="M178.6,41.7v-12l-13,1.8c1,4.1,1.9,7.8,2.8,11.6L178.6,41.7z"/>
		<path class="st0" d="M158.3,46.7L153,36l-11.2,7.1l7.6,9.3C152.6,50.4,155.4,48.6,158.3,46.7z"/>
		<path class="st0" d="M255.1,204.2l12.7,4.5c0.9-4.3,1.7-7.9,2.5-11.7l-9.8-3.5L255.1,204.2z"/>
		<path class="st0" d="M227.9,100h11.4V88.4h-11.4V100z"/>
		<path class="st0" d="M313.9,175.6l10.8,5.2c1.4-4.4,2.8-8.4,4.2-12.9l-11.8-2.1C316,169.2,315,172.2,313.9,175.6z"/>
		<path class="st0" d="M226.4,77.8l11.5-3.1c-1.7-4.3-3.1-8.1-4.8-12.3l-10.6,5.5C223.8,71.2,225.1,74.4,226.4,77.8z"/>
		<path class="st0" d="M120.1,113.5h11.6V102h-11.6V113.5z"/>
		<path class="st0" d="M227.8,123.8h11.6v-11.4h-11.6V123.8z"/>
		<path class="st0" d="M239.4,136.4h-11.5v11.5h11.5V136.4z"/>
		<path class="st0" d="M317.6,154.7h11.6v-11.5h-11.6V154.7z"/>
		<path class="st0" d="M300.4,191.3c2.2,3.2,4.3,6.4,6.8,9.9l10.1-9l-9-7.8L300.4,191.3z"/>
		<path class="st0" d="M280.7,197.9c0.3,3.9,0.5,7.6,0.8,12l13.3-2.6c-1.4-4.1-2.6-7.7-3.8-11.4L280.7,197.9z"/>
		<path class="st0" d="M204.7,35.1l-12.7-4c-0.9,4.3-1.6,8-2.4,11.6l10.1,3.3L204.7,35.1z"/>
		<path class="st0" d="M225.8,51.1l-9.7-9.1l-7.2,9.5l7.7,7.3L225.8,51.1z"/>
		<path class="st0" d="M132.7,79.2L121,76.6c-0.5,4.7-0.9,8.8-1.3,12.9h11.9C132,86,132.3,82.8,132.7,79.2z"/>
		<path class="st0" d="M235.3,186l8.6,10.4l8.2-8.8l-6.7-8L235.3,186z"/>
		<path class="st0" d="M141.9,60.1l-9.4-7.4l-7,11.3l10.8,5.1L141.9,60.1z"/>
		<path class="st0" d="M229.6,173.6l11.4-3.5c-0.6-3.6-1.2-6.8-1.7-9.9h-12.1C228.1,164.9,228.9,169.1,229.6,173.6z"/>
		<path class="st0" d="M323.4,24c-13.3,0-24,10.8-23.9,24.1c0,13.3,10.8,24,24.1,23.9c13.3,0,24-10.8,23.9-24.1c0,0,0,0,0,0
			C347.4,34.7,336.6,24,323.4,24z M323.4,59.9c-6.6,0-12-5.4-12-12c0-6.6,5.4-12,12-12s12,5.4,12,12c0,0.1,0,0.1,0,0.2
			C335.3,54.6,330,59.9,323.4,59.9L323.4,59.9z"/>
	</g>
</g>
</svg>
